<svg xmlns="http://www.w3.org/2000/svg" viewBox="0 0 768 768" width="128" height="128">
<title>Qwik bolt: sleepy</title>
<defs><filter id="sleepy-soft" x="-20%" y="-20%" width="140%" height="140%"><feGaussianBlur stdDeviation="4"/></filter>
<path id="sleepy-0" d="M-1.6 -256.7 2.7 -262 4.8 -267.4 4.8 -272.7 2.6 -277.9 -1.8 -283.2 -296.2 -569.5 -301.9 -574.3 -306.1 -576 -308.7 -574.7 -309.7 -570.3 -309.2 -562.9 -279.3 -356.8 -279 -352.4 -279.6 -348.3 -280.8 -344.5 -282.9 -340.9 -285.7 -337.6 -339.9 -283.4 -344.1 -278.1 -346.2 -272.8 -346.1 -267.6 -343.9 -262.4 -339.4 -257.2 -46.8 14.8 -40.9 19.4 -36.5 21 -33.5 19.6 -32 15.1 -31.9 7.6 -47.8 -198.3 -47.8 -202.7 -47 -206.9 -45.6 -210.7 -43.5 -214.3 -40.6 -217.7Z" fill="#18B6F6"/>
<path id="sleepy-1" d="M58.8 -317.1 63.1 -322.5 65.2 -327.8 65.2 -333.1 63 -338.4 58.7 -343.6 -235.8 -629.9 -241.5 -634.7 -245.7 -636.5 -248.3 -635.1 -249.3 -630.8 -248.8 -623.3 -218.9 -417.2 -218.6 -412.9 -219.1 -408.8 -220.4 -404.9 -222.5 -401.3 -225.3 -398 -279.5 -343.8 -283.7 -338.5 -285.8 -333.2 -285.7 -328 -283.4 -322.8 -279 -317.6 13.6 -45.6 19.5 -41 24 -39.4 26.9 -40.8 28.4 -45.3 28.5 -52.8 12.6 -258.8 12.7 -263.2 13.4 -267.3 14.8 -271.1 16.9 -274.7 19.8 -278.1Z" fill="#AC7EF4"/>
<path id="sleepy-2" d="M28.6 -286.9 32.9 -292.2 35 -297.6 35 -302.9 32.8 -308.2 28.5 -313.4 -266 -599.7 -271.7 -604.5 -275.9 -606.3 -278.5 -604.9 -279.5 -600.5 -279 -593.1 -249.1 -387 -248.8 -382.6 -249.3 -378.5 -250.6 -374.7 -252.7 -371.1 -255.5 -367.8 -309.7 -313.6 -313.9 -308.3 -316 -303 -315.9 -297.8 -313.7 -292.6 -309.2 -287.4 -16.6 -15.4 -10.7 -10.8 -6.3 -9.2 -3.3 -10.6 -1.8 -15.1 -1.7 -22.6 -17.6 -228.6 -17.6 -232.9 -16.8 -237.1 -15.4 -240.9 -13.3 -244.5 -10.4 -247.9Z" fill="#FFFBF4"/>
<path id="sleepy-3" d="M-274.5 -322 -287.8 -308.8 -290.4 -305.6 -291.6 -302.4 -291.6 -299.3 -290.2 -296.1 -287.5 -293 -32.5 -56 -28.9 -53.2 -26.3 -52.2 -24.5 -53.1 -23.6 -55.8 -23.6 -60.3 -25.9 -91Z" fill="#E2DCF2" fill-opacity="0.22" filter="url(#sleepy-soft)"/>
<path id="sleepy-4" d="M28.6 -286.9 32.9 -292.2 35 -297.6 35 -302.9 32.8 -308.2 28.5 -313.4 -266 -599.7 -271.7 -604.5 -275.9 -606.3 -278.5 -604.9 -279.5 -600.5 -279 -593.1 -249.1 -387 -248.8 -382.6 -249.3 -378.5 -250.6 -374.7 -252.7 -371.1 -255.5 -367.8 -309.7 -313.6 -313.9 -308.3 -316 -303 -315.9 -297.8 -313.7 -292.6 -309.2 -287.4 -16.6 -15.4 -10.7 -10.8 -6.3 -9.2 -3.3 -10.6 -1.8 -15.1 -1.7 -22.6 -17.6 -228.6 -17.6 -232.9 -16.8 -237.1 -15.4 -240.9 -13.3 -244.5 -10.4 -247.9Z" fill="none" stroke="#2B2233" stroke-width="21.2"/>
<path id="sleepy-5" d="M47.3 34 15.7 44 5.7 75.6 -4.3 44 -36 34 -4.3 24 5.7 -7.6 15.7 24Z" fill="#FFE68A"/>
<path id="sleepy-6" d="M47.3 34 15.7 44 5.7 75.6 -4.3 44 -36 34 -4.3 24 5.7 -7.6 15.7 24Z" fill="none" stroke="#2B2233" stroke-width="7.5"/>
<path id="sleepy-7" d="M-37.8 2.3 0 2.3 37.8 2.3 37.8 23.8 37.8 45.3 0 45.3 -37.8 45.3 -37.8 23.8Z" fill="#2B2233"/>
<path id="sleepy-8" d="M-60.4 2.3C-52.4 1.4 -16.1 -4.8 0 -4.5C16.1 -4.2 52.4 3.3 60.4 4.5" fill="none" stroke="#2B2233" stroke-width="21.4"/>
<path id="sleepy-9" d="M17 -155.6 14.7 -143.3 8.5 -134.3 0 -131 -8.5 -134.3 -14.7 -143.3 -17 -155.6 -14.7 -167.8 -8.5 -176.8 0 -180.1 8.5 -176.8 14.7 -167.8Z" fill="#2B2233"/>
<path id="sleepy-a" d="M-19.9 -19.9 19.9 -19.9 19.9 -9.3 -4 9.9 19.9 9.9 19.9 19.9 -19.9 19.9 -19.9 9.3 4 -9.9 -19.9 -9.9Z" fill="#FFF5E2"/>
<path id="sleepy-b" d="M-19.9 -19.9 19.9 -19.9 19.9 -9.3 -4 9.9 19.9 9.9 19.9 19.9 -19.9 19.9 -19.9 9.3 4 -9.9 -19.9 -9.9Z" fill="none" stroke="#2B2233" stroke-width="3.6"/>
<path id="sleepy-c" d="M-24.6 -24.6 24.6 -24.6 24.6 -11.5 -4.9 12.3 24.6 12.3 24.6 24.6 -24.6 24.6 -24.6 11.5 4.9 -12.3 -24.6 -12.3Z" fill="#FFF5E2"/>
<path id="sleepy-d" d="M-24.6 -24.6 24.6 -24.6 24.6 -11.5 -4.9 12.3 24.6 12.3 24.6 24.6 -24.6 24.6 -24.6 11.5 4.9 -12.3 -24.6 -12.3Z" fill="none" stroke="#2B2233" stroke-width="4.4"/>
<path id="sleepy-e" d="M-12.2 -12.2 12.2 -12.2 12.2 -5.7 -2.4 6.1 12.2 6.1 12.2 12.2 -12.2 12.2 -12.2 5.7 2.4 -6.1 -12.2 -6.1Z" fill="#FFF5E2"/>
<path id="sleepy-f" d="M-12.2 -12.2 12.2 -12.2 12.2 -5.7 -2.4 6.1 12.2 6.1 12.2 12.2 -12.2 12.2 -12.2 5.7 2.4 -6.1 -12.2 -6.1Z" fill="none" stroke="#2B2233" stroke-width="2.2"/></defs>
<g stroke-linecap="round" stroke-linejoin="round">
<use href="#sleepy-0" transform="matrix(1.0596 0.0284 -0.0241 0.8997 524.5 672.9)"/><use href="#sleepy-1" transform="matrix(1.0596 0.0284 -0.0241 0.8997 524.5 672.9)"/><use href="#sleepy-2" transform="matrix(1.0596 0.0284 -0.0241 0.8997 524.5 672.9)"/><use href="#sleepy-3" transform="matrix(1.0596 0.0284 -0.0241 0.8997 524.5 672.9)"/><use href="#sleepy-4" transform="matrix(1.0596 0.0284 -0.0241 0.8997 524.5 672.9)"/><use href="#sleepy-5" transform="matrix(1.0596 0.0284 -0.0241 0.8997 524.5 672.9)"/><use href="#sleepy-6" transform="matrix(1.0596 0.0284 -0.0241 0.8997 524.5 672.9)"/><use href="#sleepy-7" transform="matrix(1.0596 0.0284 -0.0241 0.8997 299 391.5)"/><use href="#sleepy-8" transform="matrix(1.0596 0.0284 -0.0241 0.8997 299 391.5)"/><use href="#sleepy-7" transform="matrix(1.0596 0.0284 -0.0241 0.8997 467 396)"/><use href="#sleepy-8" transform="matrix(1.0596 0.0284 -0.0241 0.8997 467 396)"/><use href="#sleepy-9" transform="matrix(1.0596 0.0284 -0.0241 0.8997 377.3 607.7)"/><use href="#sleepy-a" transform="matrix(0.9985 -0.0551 0.0551 0.9985 637.2 175)"/><use href="#sleepy-b" transform="matrix(0.9985 -0.0551 0.0551 0.9985 637.2 175)"/><use href="#sleepy-c" transform="matrix(0.9974 -0.0721 0.0721 0.9974 666.6 127.4)"/><use href="#sleepy-d" transform="matrix(0.9974 -0.0721 0.0721 0.9974 666.6 127.4)"/><use href="#sleepy-e" transform="matrix(0.9871 -0.1601 0.1601 0.9871 696.1 79.8)"/><use href="#sleepy-f" transform="matrix(0.9871 -0.1601 0.1601 0.9871 696.1 79.8)"/>
</g>
</svg>
